<svg width="1907" height="233" viewBox="0 0 1907 233" fill="none" xmlns="http://www.w3.org/2000/svg">
<path d="M956.916 50.8H972.755L902.595 232.8H886.755L956.916 50.8Z" fill="white"/>
<path d="M107.1 74.1L78.6 164.7H78L48.9 74.1H0L57 220.8H99.6L156.3 74.1H107.1Z" fill="white"/>
<path d="M296.365 146.1C296.365 102.3 266.065 71.1 223.165 71.1C180.265 71.1 148.765 102.9 148.765 147.3C148.765 192.9 181.465 223.5 224.965 223.5C255.565 223.5 278.065 211.2 290.365 195.6L265.465 167.7C255.565 179.4 243.565 185.4 230.065 185.4C212.965 185.4 198.865 176.4 195.565 159.9H295.165C295.765 156.9 296.365 150.3 296.365 146.1ZM223.765 108.6C237.865 108.6 247.465 117.6 250.465 132L195.565 132.3C198.565 117 209.665 108.6 223.765 108.6Z" fill="white"/>
<path d="M451.134 146.1C451.134 102.3 420.834 71.1 377.934 71.1C335.034 71.1 303.534 102.9 303.534 147.3C303.534 192.9 336.234 223.5 379.734 223.5C410.334 223.5 432.834 211.2 445.134 195.6L420.234 167.7C410.334 179.4 398.334 185.4 384.834 185.4C367.734 185.4 353.634 176.4 350.334 159.9H449.934C450.534 156.9 451.134 150.3 451.134 146.1ZM378.534 108.6C392.634 108.6 402.234 117.6 405.234 132L350.334 132.3C353.334 117 364.434 108.6 378.534 108.6Z" fill="white"/>
<path d="M581.96 105V74.1H461.36V111.6H518.96V112.8L455.66 189.6V220.8H579.56V183H517.16V182.1L581.96 105Z" fill="white"/>
<path d="M597.75 220.8H644.25V0H597.75V220.8Z" fill="white"/>
<path d="M768.309 74.1V89.7H768.009C757.509 77.4 743.409 71.1 727.509 71.1C689.409 71.1 660.309 102.6 660.309 147.6C660.309 192.9 689.109 223.5 729.609 223.5C747.009 223.5 760.809 217.2 770.409 204.9H771.009V220.8H815.409V74.1H768.309ZM739.209 182.4C720.909 182.4 708.009 168.3 708.009 147.6C708.009 126.9 721.509 112.8 739.509 112.8C756.909 112.8 770.409 127.5 770.409 147.6C770.409 168.6 756.309 182.4 739.209 182.4Z" fill="white"/>
<path d="M1077.12 108.2C1065.24 108.2 1054.62 112.34 1047.24 120.62H1047.06V64.82H1026.9V197.3H1047.06V152.66C1047.06 135.38 1056.06 126.38 1070.64 126.38C1082.7 126.38 1089.72 132.5 1089.72 149.96V197.3H1109.88V144.74C1109.88 118.46 1096.38 108.2 1077.12 108.2Z" fill="white"/>
<path d="M1209.35 152.3C1209.35 126.74 1192.61 108.2 1166.69 108.2C1142.21 108.2 1123.85 126.38 1123.85 153.38C1123.85 180.74 1143.11 198.74 1168.67 198.74C1185.95 198.74 1198.37 191.72 1205.75 182.18L1191.71 170.12C1187.21 175.7 1180.01 180.38 1169.75 180.38C1156.79 180.38 1147.43 172.82 1144.73 160.4H1208.81C1208.99 158.78 1209.35 155.54 1209.35 152.3ZM1167.77 126.38C1179.29 126.38 1186.49 133.58 1189.01 144.2H1145.09C1147.97 132.68 1156.61 126.38 1167.77 126.38Z" fill="white"/>
<path d="M1226.01 197.3H1246.17V64.82H1226.01V197.3Z" fill="white"/>
<path d="M1316.63 108.2C1304.93 108.2 1295.21 112.34 1288.55 120.26V109.46H1268.39V232.94H1288.55V186.5H1288.73C1295.21 194.42 1304.57 198.74 1316.45 198.74C1340.93 198.74 1359.11 180.92 1359.11 153.74C1359.11 127.28 1340.93 108.2 1316.63 108.2ZM1313.39 180.38C1298.99 180.38 1287.65 169.76 1287.65 153.92C1287.65 138.26 1298.09 126.38 1313.21 126.38C1327.25 126.38 1338.59 137 1338.59 153.92C1338.59 169.4 1328.15 180.38 1313.39 180.38Z" fill="white"/>
<path d="M1457.15 198.74C1474.07 198.74 1487.57 191.9 1495.13 183.26L1481.27 171.02C1476.59 176.06 1468.67 180.38 1458.95 180.38C1443.47 180.38 1432.85 169.58 1432.85 153.38C1432.85 137.36 1443.29 126.38 1458.95 126.38C1468.49 126.38 1476.05 130.52 1481.09 136.46L1494.77 124.58C1485.95 113.78 1471.55 108.2 1457.87 108.2C1431.23 108.2 1412.33 126.56 1412.33 153.56C1412.33 180.38 1431.23 198.74 1457.15 198.74Z" fill="white"/>
<path d="M1588.23 152.3C1588.23 126.74 1571.49 108.2 1545.57 108.2C1521.09 108.2 1502.73 126.38 1502.73 153.38C1502.73 180.74 1521.99 198.74 1547.55 198.74C1564.83 198.74 1577.25 191.72 1584.63 182.18L1570.59 170.12C1566.09 175.7 1558.89 180.38 1548.63 180.38C1535.67 180.38 1526.31 172.82 1523.61 160.4H1587.69C1587.87 158.78 1588.23 155.54 1588.23 152.3ZM1546.65 126.38C1558.17 126.38 1565.37 133.58 1567.89 144.2H1523.97C1526.85 132.68 1535.49 126.38 1546.65 126.38Z" fill="white"/>
<path d="M1653.49 108.2C1642.15 108.2 1631.35 112.88 1623.97 121.7H1623.79V109.46H1603.63V197.3H1623.79V153.2C1623.79 135.92 1632.79 126.38 1646.47 126.38C1658.53 126.38 1665.55 132.32 1665.55 150.86V197.3H1685.71V145.64C1685.71 119.18 1672.75 108.2 1653.49 108.2Z" fill="white"/>
<path d="M1731.03 198.74C1742.55 198.74 1748.13 196.4 1753.35 193.52L1748.13 176.06C1743.45 178.58 1738.59 179.84 1735.17 179.84C1729.41 179.84 1726.71 176.6 1726.71 167.6V126.56H1752.45V109.46H1726.71V78.14L1706.55 80.3V109.46H1695.75V126.56H1706.55V169.58C1706.55 189.2 1715.91 198.74 1731.03 198.74Z" fill="white"/>
<path d="M1841.33 152.3C1841.33 126.74 1824.59 108.2 1798.67 108.2C1774.19 108.2 1755.83 126.38 1755.83 153.38C1755.83 180.74 1775.09 198.74 1800.65 198.74C1817.93 198.74 1830.35 191.72 1837.73 182.18L1823.69 170.12C1819.19 175.7 1811.99 180.38 1801.73 180.38C1788.77 180.38 1779.41 172.82 1776.71 160.4H1840.79C1840.97 158.78 1841.33 155.54 1841.33 152.3ZM1799.75 126.38C1811.27 126.38 1818.47 133.58 1820.99 144.2H1777.07C1779.95 132.68 1788.59 126.38 1799.75 126.38Z" fill="white"/>
<path d="M1904.42 108.2C1893.8 108.2 1883.9 113.42 1877.06 122.78H1876.88V109.46H1856.72V197.3H1876.88V155.72C1876.88 141.32 1885.52 130.34 1900.82 130.34C1902.26 130.34 1904.6 130.52 1906.94 130.7V108.2H1904.42Z" fill="white"/>
</svg>
